<?xml version="1.0" encoding="UTF-8" standalone="no"?>
<svg
   xmlns:dc="http://purl.org/dc/elements/1.1/"
   xmlns:cc="http://creativecommons.org/ns#"
   xmlns:rdf="http://www.w3.org/1999/02/22-rdf-syntax-ns#"
   xmlns:svg="http://www.w3.org/2000/svg"
   xmlns="http://www.w3.org/2000/svg"
   xmlns:sodipodi="http://sodipodi.sourceforge.net/DTD/sodipodi-0.dtd"
   xmlns:inkscape="http://www.inkscape.org/namespaces/inkscape"
   version="1.1"
   id="svg901"
   width="1000"
   height="1000"
   viewBox="0 0 1000 1000"
   sodipodi:docname="eye-of-horus_white.svg"
   inkscape:version="1.0beta2 (2b71d25, 2019-12-03)">
  <metadata
     id="metadata907">
    <rdf:RDF>
      <cc:Work
         rdf:about="">
        <dc:format>image/svg+xml</dc:format>
        <dc:type
           rdf:resource="http://purl.org/dc/dcmitype/StillImage" />
        <dc:title></dc:title>
      </cc:Work>
    </rdf:RDF>
  </metadata>
  <defs
     id="defs905" />
  <sodipodi:namedview
     inkscape:pagecheckerboard="false"
     pagecolor="#2c1515"
     bordercolor="#666666"
     inkscape:document-rotation="0"
     borderopacity="1"
     objecttolerance="10"
     gridtolerance="10"
     guidetolerance="10"
     inkscape:pageopacity="0"
     inkscape:pageshadow="2"
     inkscape:window-width="1680"
     inkscape:window-height="952"
     id="namedview903"
     showgrid="false"
     inkscape:zoom="0.055443011"
     inkscape:cx="921.27443"
     inkscape:cy="1506.5508"
     inkscape:window-x="0"
     inkscape:window-y="23"
     inkscape:window-maximized="0"
     inkscape:current-layer="g909"
     fit-margin-top="0"
     fit-margin-left="0"
     fit-margin-right="0"
     fit-margin-bottom="0" />
  <g
     inkscape:groupmode="layer"
     inkscape:label="Image"
     id="g909"
     transform="translate(-157.99335,-336.91264)">
    <path
       style="fill:#ffffff;fill-opacity:1;stroke-width:10;stroke:none;stroke-opacity:1;stroke-miterlimit:4;stroke-dasharray:none;stroke-linejoin:round;stroke-linecap:round"
       d="m 327.92346,1335.6915 c -64.31513,-7.6837 -103.49251,-46.4837 -123.10955,-121.9238 -13.71161,-52.7298 -10.47092,-122.467 7.75261,-166.8306 26.18153,-63.73646 89.76822,-88.21742 136.7447,-52.64681 63.93154,48.40891 68.76551,149.26871 9.29468,193.93241 -31.70756,23.8129 -65.66394,2.1943 -74.57168,-47.4767 -10.58294,-59.0119 25.59365,-93.0229 73.19375,-68.8121 2.53282,1.2882 -4.74511,-11.3903 -10.69349,-18.6286 -34.90285,-42.4717 -87.64987,-20.6992 -103.08436,42.5504 -7.74156,31.7244 -6.79063,75.8946 2.15501,100.0986 19.93837,53.9467 56.07571,82.3284 111.18725,87.3243 27.01477,2.4489 73.0136,-11.3722 111.93765,-33.6335 55.84747,-31.9402 103.19087,-80.1828 155.83213,-158.7921 9.6617,-14.4278 30.79587,-45.9067 46.96481,-69.9531 36.69246,-54.56876 114.22015,-169.98598 128.5018,-191.30345 5.88562,-8.78516 10.60185,-16.10351 10.48052,-16.26299 -0.12134,-0.15947 -3.17577,1.14282 -6.78762,2.89399 C 662.23985,884.82319 452.28987,842.08869 287.49281,711.15104 239.34668,672.89706 207.10807,676.44726 168.2,724.2879 c -8.93637,10.98799 -8.1948,13.4122 -8.86434,-28.97853 -0.26809,-16.97392 -0.71209,-37.65624 -0.98666,-45.96074 -0.57958,-17.52891 -2.57384,-15.39432 16.16442,-17.30178 65.7894,-6.69702 130.09166,-29.23819 222.28801,-77.92312 16.57378,-8.75188 41.93339,-22.1476 56.35471,-29.76825 171.48158,-90.61591 263.27924,-91.30593 428.13924,-3.21818 92.60993,49.4832 113.73411,59.48312 150.86532,71.41786 28.7326,9.2352 53.7906,13.58707 83.4303,14.48948 20.226,0.6158 20.226,0.6158 19.7985,4.83445 -0.2351,2.32028 -0.8143,11.16255 -1.2869,19.6495 -0.4727,8.48696 -1.011,16.40673 -1.1963,17.59948 -0.3152,2.02892 -1.006,2.21515 -10.7207,2.89022 -51.4633,3.57618 -132.78547,41.60909 -159.75801,74.71601 -37.33673,45.82798 -40.63338,126.26176 -6.97982,170.2952 27.401,35.85241 71.93363,39.8592 124.84763,11.2331 0.7519,-0.4068 -4.5379,9.60939 -11.7553,22.25821 -58.5716,102.64999 -108.51797,215.28549 -152.52281,343.95909 -4.06341,11.8817 -7.79432,22.7605 -8.291,24.175 -1.182,3.3668 -1.59808,-3.4318 -3.68316,-60.1803 -5.15566,-140.3179 -6.6365,-296.21922 -3.928,-413.54622 1.17575,-50.92879 1.8215,-46.92805 -6.3335,-39.23234 -61.34004,57.8853 -115.22771,133.99473 -206.95524,292.29796 -68.68371,118.5342 -123.95151,180.7624 -196.88315,221.6785 -48.20502,27.0439 -114.24848,41.7263 -162.01978,36.019 z M 700.09935,788.94959 c 70.42071,-8.33007 136.45684,-32.86728 211.72153,-78.66995 37.90271,-23.06594 108.79012,-74.48114 105.19712,-76.30038 -0.8188,-0.41461 -8.4492,-3.56847 -16.9564,-7.00855 -21.36447,-8.63921 -45.27056,-20.15587 -93.95539,-45.26253 -49.13842,-25.34058 -42.30329,-24.72716 -46.36101,-24.72716 -0.45287,0 -10.82532,-0.61399 -8.46674,3.93853 C 899.3773,653.75984 777.32185,762.39294 681.63028,762.49959 577.12806,762.61605 458.68029,650.17318 525.0953,559.6232 c 7.71612,-10.52013 -26.7339,4.48769 -39.36915,9.16785 -13.55127,5.01946 40.72483,-20.65843 -38.44029,20.04572 -68.60878,35.27642 -108.24489,53.74053 -141.27812,65.81303 -7.96401,2.91059 -15.14544,5.63536 -15.95872,6.05507 -2.76564,1.42724 75.26768,44.06075 116.53621,63.66956 87.81159,41.72381 153.89446,60.98556 228.15831,66.5033 10.82986,0.80465 52.69471,-0.43045 65.35581,-1.92814 z M 1075.406,523.43357 c -1.0761,-0.23629 -5.1266,-0.93379 -9.001,-1.54997 -29.7472,-4.73106 -64.3049,-17.42152 -133.45114,-49.00648 -118.62909,-54.18803 -157.9393,-65.56954 -237.55074,-68.77816 -68.76796,-2.7716 -160.4346,16.51293 -226.02092,47.54953 -156.66388,74.13608 -246.05532,84.48136 -295.15831,34.1587 -7.42409,-7.60849 -7.68655,-7.31018 4.62354,-5.25536 55.06002,9.19074 124.05168,-6.54955 179.21015,-40.88637 152.21849,-94.75787 318.26947,-126.39106 445.08986,-84.79093 24.65819,8.08845 39.79906,15.18595 72.27769,33.88118 138.76497,79.87532 198.36037,103.53915 272.77247,108.31118 11.3492,0.72782 11.3492,0.72782 7.4357,4.57334 -8.2562,8.11268 -21.7995,15.61995 -35.2217,19.52391 -6.7432,1.96131 -39.0004,3.58789 -45.0056,2.26943 z"
       id="path913"
       inkscape:connector-curvature="0"
       sodipodi:nodetypes="cscscscsssscccsccssscsssscscccscsccscscssccsccssssssasccsssccsssssscsscsc" />
  </g>
</svg>
